<svg width="91" height="92" viewBox="0 0 91 92" fill="none" xmlns="http://www.w3.org/2000/svg">
<path d="M63.9325 50.0651C63.9787 49.8968 64.1438 49.7556 64.4126 49.6767C64.9095 49.5211 65.6234 49.6615 65.9775 50.0356C67.087 51.228 68.7619 52.3526 70.7097 52.9189C72.6606 53.4852 74.645 53.336 76.3694 52.2282C78.4767 50.7686 81.0928 49.8537 83.7488 50.148C86.3841 50.44 88.7019 52.0423 90.002 55.1019C90.2731 55.8102 90.002 56.8064 89.407 57.269C88.8135 57.7356 88.1316 57.5011 87.87 56.796C87.4465 55.6523 86.8259 54.7446 86.0626 54.0834C85.2714 53.415 84.339 52.9939 83.3428 52.8064C82.3418 52.6198 81.3488 52.6772 80.3925 52.9133C79.4075 53.1446 78.4567 53.553 77.5953 54.1065C77.0298 54.4702 76.4444 54.7502 75.847 54.9472C75.2488 55.145 74.5844 55.2439 73.9519 55.2782C72.6702 55.3428 71.3884 55.1083 70.1354 54.6521C68.884 54.195 67.749 53.5562 66.7536 52.8527C66.2495 52.497 65.8132 52.1357 65.3594 51.7504C64.9056 51.3652 64.4884 50.9712 64.1167 50.5788C63.9484 50.4017 63.8902 50.2214 63.9325 50.0651Z" fill="#F4E3D9"/>
<path d="M61.3474 56.0934C61.4352 55.9411 61.6242 55.8549 61.8938 55.8669C62.4138 55.89 63.0288 56.2625 63.2417 56.7443C63.9787 58.3155 65.0523 59.8748 66.7105 61.0904C67.532 61.6878 68.4237 62.132 69.3705 62.3689C70.3332 62.6194 71.2887 62.621 72.2474 62.3737C73.5004 62.0507 74.8659 61.9398 76.1469 62.006C77.4254 62.073 78.7103 62.3689 79.9011 62.9671C81.092 63.5661 82.1009 64.4315 82.8483 65.5833C83.594 66.7302 83.9856 68.114 84.0606 69.7611C84.0869 70.5268 83.5533 71.4073 82.8004 71.6107C82.0698 71.834 81.5107 71.3794 81.5203 70.64C81.5027 68.197 80.3414 66.3426 78.6082 65.3216C76.8432 64.2808 74.7838 64.1436 72.7946 64.5863C70.0963 65.1406 67.6588 64.2927 65.5994 62.546C63.5991 60.8471 62.1498 58.5819 61.3466 56.6446C61.2613 56.4268 61.2749 56.2402 61.3474 56.0934Z" fill="#F4E3D9"/>
<path d="M56.8003 60.8816C56.9407 60.7755 57.1552 60.7675 57.4097 60.876C57.9002 61.0866 58.3508 61.6457 58.3771 62.1586C58.476 63.8128 59.0439 65.7661 60.1733 67.4506C61.3035 69.1391 62.9115 70.2845 64.927 70.519C66.2654 70.704 67.4937 70.9552 68.6973 71.4785C69.8881 71.9913 71.0015 72.7148 71.9172 73.6838C72.8312 74.6529 73.4789 75.803 73.7772 77.1255C74.0659 78.4335 74.0579 79.9769 73.5187 81.4875C73.2779 82.2102 72.442 82.8092 71.6954 82.7876C70.9473 82.7701 70.5756 82.1519 70.8213 81.4373C71.6221 79.1131 71.2105 77.0425 69.9192 75.4776C68.6247 73.912 66.6849 73.0131 64.6766 72.773C64.0217 72.7044 63.3924 72.5401 62.7839 72.2721C62.1841 72.0161 61.6281 71.6938 61.1201 71.3118C60.1023 70.5493 59.2728 69.5515 58.6052 68.3974C57.9393 67.244 57.4759 66.0197 57.1608 64.8305C57.0029 64.2355 56.8832 63.6501 56.7995 63.0862C56.7237 62.5326 56.6591 61.9655 56.6176 61.408C56.6009 61.1608 56.6695 60.9789 56.8003 60.8816Z" fill="#F4E3D9"/>
<path d="M50.9444 63.8526C51.1182 63.8247 51.3152 63.8693 51.5114 64.0448C51.8895 64.3878 52.1224 65.0689 51.9812 65.5842C51.5194 67.1921 51.3591 69.1327 51.8464 71.1211C52.3226 73.0768 53.4632 74.7948 55.2681 75.6833C57.5828 76.7776 59.706 78.6504 60.7596 81.0559C61.8403 83.5277 61.5859 86.273 59.5784 88.9322C59.1205 89.5839 58.1052 89.7872 57.4089 89.5081C56.7062 89.2178 56.569 88.5111 57.0516 87.9408C57.8364 87.0236 58.3158 86.0393 58.4936 84.9985C58.6771 83.9775 58.5814 82.9702 58.2456 82.0107C57.909 81.0528 57.3594 80.2105 56.6775 79.5014C56.0011 78.8123 55.1708 78.1846 54.256 77.6949C53.054 77.0544 52.116 76.2058 51.4253 75.1394C50.7274 74.0515 50.2895 72.8176 50.0606 71.5047C49.8309 70.1919 49.8189 68.895 49.9354 67.6914C50.0495 66.4671 50.2728 65.2651 50.587 64.2538C50.658 64.0241 50.7864 63.8885 50.9444 63.8526Z" fill="#F4E3D9"/>
<path d="M44.3897 64.5846C44.5668 64.5926 44.7367 64.7226 44.8627 64.9683C45.1044 65.442 45.09 66.1599 44.779 66.573C43.7868 67.9082 42.9637 69.7842 42.7483 71.7861C42.529 73.8208 43.0267 75.7175 44.4201 77.1875C44.8739 77.6596 45.2942 78.2044 45.6755 78.718C46.0559 79.2301 46.3973 79.778 46.6884 80.3539C47.2707 81.508 47.6567 82.7738 47.7341 84.105C47.8107 85.4346 47.5658 86.7355 46.9453 87.9463C46.635 88.5508 46.2322 89.1331 45.7329 89.6826C45.2336 90.2298 44.6378 90.6788 43.9479 91.1119C43.3002 91.5131 42.2769 91.4397 41.7202 90.9452C41.1603 90.4531 41.2719 89.7408 41.918 89.3476C44.0221 88.0739 45.0366 86.2195 45.0541 84.1904C45.0701 82.1589 44.1632 80.2279 42.7786 78.7619C42.5505 78.5202 42.3415 78.2754 42.1533 78.013C41.9659 77.7338 41.7984 77.4491 41.6508 77.1572C41.3557 76.5765 41.1372 75.9719 40.9928 75.3538C40.7033 74.1151 40.7088 72.8174 40.9393 71.5046C41.1706 70.1925 41.6022 68.9563 42.1246 67.8428C42.3862 67.2853 42.6709 66.7597 42.9692 66.2731C43.1184 66.0299 43.2707 65.7962 43.4255 65.5744C43.5834 65.3352 43.7453 65.0967 43.908 64.875C44.0556 64.6732 44.2254 64.5774 44.3897 64.5846Z" fill="#F4E3D9"/>
<path d="M37.9922 63.1059C38.1429 63.1992 38.2729 63.3396 38.3064 63.6108C38.375 64.118 38.1158 64.7888 37.6771 65.0911C37.319 65.3463 36.9721 65.6119 36.6419 65.8863C36.3069 66.1703 35.9783 66.4869 35.6632 66.8339C35.0331 67.5278 34.4572 68.3381 34.0106 69.2498C33.5647 70.163 33.284 71.1146 33.217 72.0813C33.1835 72.5646 33.2034 73.0511 33.2792 73.5377C33.3518 74.033 33.4913 74.5036 33.7019 74.9398C34.7667 77.2824 35.1942 80.0628 34.4541 82.5848C33.6931 85.1706 31.7279 87.1279 28.4856 87.8593C27.7175 88.0587 26.8019 87.5842 26.4533 86.9118C26.1016 86.2378 26.4517 85.6085 27.1871 85.4825C27.7829 85.3804 28.3301 85.2193 28.8262 85.0055C29.3303 84.7726 29.7857 84.4791 30.1829 84.1497C30.9805 83.4869 31.5548 82.6534 31.9137 81.7035C32.2718 80.7527 32.393 79.7534 32.3268 78.7707C32.2941 78.2778 32.212 77.7952 32.0916 77.3119C31.9791 76.8102 31.8252 76.3157 31.6305 75.8355C31.1225 74.573 30.9534 73.3119 31.1049 72.0589C31.2692 70.7772 31.7263 69.5505 32.3946 68.3972C33.0622 67.2446 33.887 66.2429 34.75 65.395C35.6289 64.5232 36.5685 63.7543 37.4602 63.1817C37.6628 63.0517 37.8486 63.0309 37.9922 63.1059Z" fill="#F4E3D9"/>
<path d="M32.5039 59.4642C32.6355 59.5807 32.6842 59.7864 32.6236 60.0536C32.5071 60.5681 32.0334 61.108 31.5269 61.2293C30.7101 61.4255 29.8463 61.7573 29.0001 62.2087C28.177 62.6386 27.3658 63.1962 26.6352 63.902C25.9046 64.6063 25.3088 65.4135 24.9092 66.306C24.532 67.1746 24.3581 68.1229 24.4235 69.1239C24.4658 69.7795 24.457 70.4439 24.3988 71.1059C24.3485 71.7576 24.2688 72.3829 24.1196 73.0146C23.8261 74.2692 23.3085 75.4879 22.5125 76.5559C21.7157 77.6239 20.6915 78.4646 19.4353 78.9934C18.8108 79.255 18.1161 79.4536 17.3911 79.5389C16.6756 79.6131 15.9107 79.5956 15.1044 79.4807C14.345 79.3746 13.6025 78.664 13.4908 77.931C13.3927 77.1796 13.9303 76.7123 14.6713 76.8351C17.1151 77.2028 19.0923 76.4299 20.4108 74.8881C21.7292 73.3424 22.27 71.287 22.1416 69.2866C22.0634 66.5349 23.3571 64.2442 25.4005 62.5461C27.4512 60.8409 29.895 59.8399 31.9424 59.3844C32.1873 59.3222 32.3811 59.3557 32.5039 59.4642Z" fill="#F4E3D9"/>
<path d="M28.5654 54.1793C28.6388 54.338 28.6045 54.5526 28.4489 54.7855C28.1618 55.2274 27.5253 55.5783 27.0196 55.5161C25.3997 55.3167 23.3914 55.5312 21.5354 56.3504C19.677 57.1703 18.254 58.5589 17.6495 60.5154C16.9643 62.9928 15.5526 65.3712 13.3265 66.8523C11.1211 68.3215 8.31119 68.5863 5.35689 67.0749C4.69408 66.7072 4.25939 65.7716 4.41811 65.0354C4.57205 64.2969 5.24442 64.0384 5.89925 64.4093C6.96005 65.0115 8.02006 65.3082 9.03062 65.3234C10.0579 65.3305 11.0485 65.0522 11.9307 64.5561C12.8192 64.0552 13.537 63.3756 14.1273 62.5756C14.7318 61.7661 15.196 60.8425 15.4983 59.8654C15.6969 59.2241 15.9649 58.6339 16.2943 58.0995C16.6453 57.5547 17.0752 57.0586 17.541 56.624C18.479 55.7514 19.6115 55.1069 20.8646 54.6523C22.1168 54.1961 23.3977 53.956 24.6141 53.8555C25.225 53.8037 25.8065 53.7933 26.3831 53.8053C26.9797 53.8092 27.5532 53.8419 28.0916 53.9034C28.3349 53.9313 28.4968 54.0318 28.5654 54.1793Z" fill="#F4E3D9"/>
<path d="M26.6743 47.9021C26.7054 48.0752 26.6153 48.2618 26.4007 48.4261C25.9876 48.7412 25.2769 48.8512 24.8047 48.6207C23.2311 47.8909 21.3982 47.3828 19.3523 47.5184C17.3472 47.6484 15.4066 48.4787 14.2868 50.0931C13.5323 51.1467 12.5624 52.1078 11.5303 52.8823C10.5086 53.6528 9.33532 54.2518 8.03763 54.558C6.74153 54.8643 5.41114 54.8508 4.0975 54.4488C2.79741 54.0476 1.60181 53.2396 0.488367 52.0257C-0.0157141 51.4546 -0.191982 50.4353 0.260256 49.7988C0.678994 49.1599 1.39922 49.1479 1.86502 49.7198C3.45942 51.5774 5.53158 52.2554 7.51839 51.9228C9.53711 51.5862 11.2121 50.3667 12.4412 48.7507C14.1616 46.5924 16.5895 45.672 19.2534 45.6848C21.9134 45.6991 24.4642 46.5031 26.3154 47.4786C26.5148 47.5926 26.64 47.7426 26.6743 47.9021Z" fill="#F4E3D9"/>
<path d="M27.0675 41.3053C27.0212 41.4744 26.8569 41.6147 26.5873 41.6937C26.0904 41.8492 25.3766 41.7088 25.0224 41.334C23.913 40.1432 22.238 39.0186 20.2903 38.4523C18.3394 37.886 16.3558 38.0343 14.6305 39.143C12.5233 40.6018 9.90717 41.5166 7.25117 41.2223C4.61591 40.9304 2.29809 39.328 0.998009 36.2684C0.726826 35.561 0.998006 34.5648 1.59301 34.1014C2.18643 33.6356 2.86837 33.8693 3.12999 34.5743C3.55431 35.7173 4.17404 36.6266 4.93734 37.2878C5.72856 37.9554 6.66095 38.3773 7.65715 38.5639C8.65813 38.7514 9.65114 38.6939 10.6075 38.4571C11.5925 38.2258 12.5432 37.8174 13.4046 37.2638C13.9701 36.9001 14.5556 36.621 15.153 36.4232C15.7512 36.2262 16.4156 36.1273 17.0481 36.093C18.3298 36.0276 19.6123 36.2621 20.8646 36.7191C22.116 37.1753 23.2518 37.8142 24.2464 38.5185C24.7505 38.8726 25.1868 39.2347 25.6406 39.6199C26.0944 40.006 26.5115 40.3992 26.8832 40.7916C27.0515 40.9687 27.1098 41.1489 27.0675 41.3053Z" fill="#F4E3D9"/>
<path d="M29.6525 35.2769C29.5656 35.4292 29.3758 35.5154 29.1062 35.5034C28.5862 35.4803 27.9712 35.1078 27.7582 34.6269C27.0221 33.054 25.9477 31.4955 24.2895 30.2808C23.468 29.6826 22.5763 29.2391 21.6295 29.0006C20.6668 28.751 19.7113 28.7494 18.7526 28.9966C17.5004 29.3197 16.1341 29.4305 14.8531 29.3643C13.5746 29.2973 12.2897 29.0014 11.0988 28.4032C9.90803 27.8042 8.89907 26.9388 8.15172 25.7879C7.40597 24.6402 7.01434 23.2563 6.93937 21.6101C6.91304 20.8436 7.44664 19.9622 8.19957 19.7604C8.93017 19.5371 9.48928 19.991 9.47971 20.7303C9.49726 23.1734 10.6586 25.0278 12.3917 26.0487C14.1568 27.0896 16.2162 27.2268 18.2054 26.7841C20.9037 26.2306 23.3412 27.0784 25.4006 28.8244C27.4009 30.5232 28.8502 32.7884 29.6533 34.7258C29.7387 34.9435 29.7251 35.1302 29.6525 35.2769Z" fill="#F4E3D9"/>
<path d="M34.1996 30.4898C34.0592 30.5951 33.8446 30.603 33.5902 30.4946C33.0997 30.284 32.6491 29.7249 32.6227 29.212C32.5238 27.5578 31.9559 25.6045 30.8273 23.9192C29.6964 22.2323 28.0884 21.0861 26.0729 20.8516C24.7345 20.6666 23.5062 20.4153 22.3034 19.8921C21.1118 19.3793 19.9984 18.6558 19.0827 17.6867C18.1687 16.7177 17.521 15.5675 17.2227 14.2451C16.934 12.9371 16.942 11.3937 17.4811 9.88307C17.722 9.16044 18.5579 8.56064 19.3044 8.58298C20.0526 8.60052 20.4243 9.21946 20.1786 9.9341C19.3778 12.2583 19.7894 14.3281 21.0807 15.893C22.3752 17.4586 24.3149 18.3575 26.3233 18.5976C26.9781 18.6654 27.6074 18.8305 28.216 19.0985C28.8166 19.3545 29.3717 19.6775 29.8798 20.0588C30.8975 20.8213 31.727 21.8191 32.3946 22.9732C33.0606 24.1273 33.524 25.3517 33.8391 26.5401C33.997 27.1351 34.1166 27.7205 34.2004 28.2852C34.2761 28.8372 34.3407 29.4051 34.383 29.9626C34.399 30.2106 34.3304 30.3917 34.1996 30.4898Z" fill="#F4E3D9"/>
<path d="M40.0555 27.519C39.8817 27.5461 39.6854 27.5014 39.4884 27.326C39.1104 26.983 38.8775 26.3018 39.0187 25.7866C39.4805 24.1786 39.6408 22.2381 39.1534 20.2497C38.6773 18.294 37.5367 16.5767 35.7318 15.6874C33.4171 14.5931 31.2939 12.7204 30.2403 10.3148C29.1595 7.84385 29.4148 5.09772 31.4215 2.43853C31.8794 1.78769 32.8947 1.58271 33.591 1.86346C34.2937 2.15219 34.4309 2.86045 33.9483 3.42994C33.1635 4.34797 32.6841 5.33142 32.5071 6.37149C32.3228 7.39321 32.4185 8.40137 32.7543 9.35928C33.0909 10.3188 33.6404 11.1603 34.3224 11.8701C34.9995 12.5592 35.8291 13.1853 36.7439 13.6767C37.9459 14.3171 38.8839 15.165 39.5746 16.2314C40.2725 17.3193 40.7103 18.5532 40.9393 19.866C41.169 21.1789 41.1809 22.4758 41.0645 23.6794C40.9504 24.9037 40.7271 26.1056 40.4128 27.117C40.3419 27.3475 40.2135 27.4831 40.0555 27.519Z" fill="#F4E3D9"/>
<path d="M46.6102 26.7859C46.4332 26.7779 46.2633 26.6479 46.1373 26.4022C45.8956 25.9284 45.9099 25.2106 46.221 24.7975C47.2132 23.4631 48.0363 21.5863 48.2517 19.5844C48.471 17.5497 47.9733 15.6538 46.5807 14.183C46.1261 13.7109 45.7058 13.1661 45.3245 12.6516C44.9441 12.1404 44.6035 11.5924 44.3115 11.0166C43.7293 9.86325 43.3433 8.59586 43.2659 7.26547C43.1893 5.93587 43.4342 4.63498 44.0547 3.42503C44.365 2.81965 44.7686 2.23742 45.2679 1.68787C45.7664 1.14072 46.3622 0.691662 47.0521 0.258567C47.6997 -0.143422 48.7239 -0.0684403 49.2798 0.42607C49.8397 0.91739 49.728 1.63044 49.082 2.02286C46.9779 3.29663 45.9634 5.15183 45.9458 7.18092C45.9299 9.2116 46.8367 11.1426 48.2214 12.6086C48.4495 12.8502 48.6585 13.0959 48.8467 13.3583C49.0341 13.6367 49.2016 13.9222 49.3492 14.2125C49.6443 14.7948 49.8628 15.3986 50.0072 16.0175C50.2967 17.2554 50.2911 18.5531 50.0606 19.8659C49.8293 21.178 49.3978 22.4142 48.8754 23.5285C48.6138 24.0844 48.3291 24.6108 48.0308 25.0974C47.8824 25.3406 47.7293 25.5743 47.5745 25.7968C47.4166 26.0353 47.2547 26.2738 47.092 26.4955C46.9444 26.6973 46.7745 26.793 46.6102 26.7859Z" fill="#F4E3D9"/>
<path d="M53.0077 28.2645C52.857 28.1704 52.7278 28.0308 52.6943 27.7596C52.6249 27.2532 52.8841 26.5816 53.3228 26.2793C53.6809 26.0241 54.0279 25.7585 54.3581 25.4841C54.6931 25.2002 55.0217 24.8835 55.3367 24.5366C55.9668 23.8435 56.5427 23.0331 56.9894 22.1206C57.4352 21.2082 57.716 20.2567 57.783 19.2892C57.8165 18.8058 57.7973 18.3193 57.7207 17.8328C57.6482 17.3366 57.5086 16.8669 57.2988 16.4306C56.234 14.088 55.8057 11.3076 56.5459 8.78561C57.3068 6.1998 59.2721 4.24169 62.5143 3.51109C63.2824 3.31089 64.1981 3.78627 64.5466 4.45864C64.8983 5.13261 64.5482 5.76191 63.8128 5.88793C63.217 5.99003 62.6698 6.15114 62.1737 6.36569C61.6697 6.59779 61.2142 6.89131 60.817 7.22072C60.0194 7.88352 59.4451 8.717 59.0862 9.66694C58.7281 10.6177 58.6069 11.6171 58.6731 12.5997C58.7058 13.0926 58.7879 13.5752 58.9084 14.0585C59.0208 14.5602 59.1756 15.0547 59.3694 15.5349C59.8774 16.7975 60.0465 18.0585 59.895 19.3115C59.7307 20.5932 59.2737 21.8199 58.6053 22.9733C57.9377 24.1266 57.113 25.1276 56.25 25.9754C55.371 26.848 54.4315 27.6169 53.5397 28.1887C53.3372 28.3188 53.1513 28.3395 53.0077 28.2645Z" fill="#F4E3D9"/>
<path d="M58.4961 31.907C58.3645 31.7898 58.3158 31.584 58.3764 31.3168C58.4937 30.8032 58.9667 30.2624 59.4731 30.142C60.2899 29.9457 61.1537 29.6131 61.9999 29.1617C62.823 28.7318 63.6342 28.1743 64.3648 27.4692C65.0954 26.7641 65.6912 25.9577 66.0908 25.0644C66.4681 24.1959 66.6419 23.2475 66.5765 22.2465C66.5343 21.5909 66.543 20.9265 66.6012 20.2645C66.6515 19.6129 66.7313 18.9876 66.8804 18.3559C67.1739 17.1012 67.6916 15.8833 68.4876 14.8137C69.2844 13.7457 70.3085 12.9059 71.5647 12.377C72.1892 12.1154 72.8847 11.9168 73.6089 11.8315C74.3244 11.7573 75.0893 11.7749 75.8957 11.8897C76.655 11.9958 77.3975 12.7065 77.5092 13.4395C77.6073 14.1908 77.0697 14.659 76.3288 14.5354C73.8849 14.1677 71.9077 14.9405 70.5892 16.4831C69.2708 18.028 68.73 20.0835 68.8585 22.0838C68.9366 24.8363 67.6429 27.1262 65.5995 28.8243C63.5489 30.5296 61.105 31.5314 59.0576 31.986C58.8127 32.0482 58.6189 32.0147 58.4961 31.907Z" fill="#F4E3D9"/>
<path d="M62.4345 37.1912C62.3612 37.0325 62.3955 36.8187 62.551 36.5858C62.8381 36.1432 63.4746 35.7922 63.9803 35.8552C65.6002 36.0546 67.6086 35.8393 69.4646 35.0202C71.323 34.2002 72.7459 32.8116 73.3505 30.8551C74.0356 28.3786 75.4474 25.9993 77.6734 24.5174C79.8788 23.049 82.6888 22.7842 85.6431 24.2965C86.3059 24.6634 86.7405 25.5989 86.5818 26.3351C86.4279 27.0729 85.7555 27.3321 85.1007 26.9612C84.0399 26.3591 82.9799 26.0623 81.9693 26.0472C80.942 26.04 79.9514 26.3192 79.0692 26.8153C78.1807 27.3162 77.4629 27.9949 76.8735 28.7949C76.2681 29.6053 75.8039 30.5281 75.5016 31.5051C75.303 32.1464 75.035 32.7367 74.7056 33.2718C74.3546 33.8158 73.9248 34.3119 73.459 34.7466C72.521 35.6192 71.3884 36.2636 70.1354 36.7191C68.8831 37.1745 67.6022 37.4146 66.3866 37.5159C65.7749 37.5669 65.1934 37.5773 64.6168 37.5653C64.0202 37.5613 63.4467 37.5286 62.9083 37.4672C62.6651 37.4393 62.5039 37.3388 62.4345 37.1912Z" fill="#F4E3D9"/>
<path d="M64.3257 43.4691C64.2946 43.296 64.3847 43.1085 64.5993 42.9442C65.0124 42.6284 65.7231 42.5191 66.1953 42.7504C67.7689 43.4794 69.6018 43.9875 71.6476 43.8519C73.6528 43.7219 75.5933 42.8908 76.7132 41.2773C77.4677 40.2236 78.4376 39.2625 79.4697 38.4881C80.4914 37.7184 81.6647 37.1186 82.9624 36.8115C84.2585 36.506 85.5888 36.5204 86.9025 36.9216C88.2034 37.3236 89.3982 38.1307 90.5116 39.3455C91.0157 39.9158 91.192 40.9351 90.7397 41.5716C90.321 42.2104 89.6008 42.2224 89.1358 41.6505C87.5406 39.7929 85.4684 39.1158 83.4816 39.4476C81.4629 39.7842 79.7879 41.0037 78.5588 42.6204C76.8392 44.7779 74.4105 45.6983 71.7465 45.6848C69.0865 45.6712 66.5366 44.8673 64.6846 43.8918C64.486 43.7777 64.36 43.6278 64.3257 43.4691Z" fill="#F4E3D9"/>
</svg>
