<svg width="126" height="209" viewBox="0 0 126 209" fill="none" xmlns="http://www.w3.org/2000/svg">
<path d="M59.8512 106.035C53.4165 110.926 46.9423 110.309 41.2134 104.468C47.6784 103.272 53.6544 102.462 59.8512 106.035ZM72.8364 58.1833C66.0048 64.4328 57.7947 65.095 51.2354 60.0546C58.3347 57.9415 64.9041 55.7556 72.8364 58.1833ZM109.934 181.593C109.188 182.342 108.962 182.762 108.63 182.877C81.6729 192.223 55.2202 191.513 29.593 178.397C23.0836 175.065 17.6347 170.151 13.2819 164.15C3.894 151.209 3.94945 134.491 13.4528 121.669C18.3726 115.031 24.1248 109.454 32.2692 106.803C35.5922 108.836 38.7383 111.049 42.1331 112.773C47.4885 115.493 53.1417 116.192 58.9063 113.983C63.2442 112.322 65.7917 109.379 65.4737 106.233C65.0723 102.263 62.2357 99.9535 58.8295 99.2849C54.0667 98.3497 49.1181 98.109 44.2456 98.0622C41.0831 98.0314 37.9141 98.8778 34.8159 99.3212C24.7346 87.9591 28.8992 72.8984 44.7095 63.79C46.6849 64.7071 48.7392 65.8188 50.9037 66.6386C58.6948 69.5911 66.4434 69.7578 73.7615 65.3551C76.5116 63.7 78.955 61.37 78.5505 57.6076C78.239 54.703 75.321 52.2792 71.0904 51.568C64.3705 50.4382 57.8807 51.7574 51.5092 53.8167C49.2894 54.5335 47.119 55.4011 45.0235 56.1645C28.7927 39.1904 29.5631 12.5288 49.9339 2.68014C48.5017 1.74078 47.5294 0.608761 46.5118 0.566521C45.3841 0.5209 44.0323 1.24883 43.0936 2.02305C34.2479 9.32106 28.4939 18.236 29.2295 30.2098C29.7786 39.1333 32.647 47.3708 37.2895 54.9987C37.952 56.0856 38.5895 57.1881 39.2107 58.2995C39.3029 58.4617 39.2444 58.7064 39.2801 59.3374C38.4539 60.1517 37.4587 61.2367 36.359 62.1996C22.77 74.0916 20.4698 84.3544 27.9164 101.414C26.4344 102.347 24.8936 103.343 23.3295 104.3C14.0924 109.956 7.30839 117.718 3.29031 127.804C-3.31982 144.39 0.872481 162.148 14.2588 174.772C21.5446 181.644 29.9838 186.589 39.4361 189.753C62.374 197.43 85.2245 197.703 107.905 188.627C109.097 188.151 110.297 187.692 111.502 187.256C111.667 187.195 111.896 187.31 112.917 187.482C110.844 191.619 107.763 194.651 104.896 197.804C102.077 200.906 99.1302 203.893 95.9967 207.184C98.9185 209.123 101.146 208.596 103.185 207.314C105.529 205.839 108.072 204.429 109.887 202.413C114.746 197.011 119.535 191.501 123.83 185.65C127.247 180.992 125.878 177.784 120.632 176.779C109.498 174.644 98.3478 172.593 87.1906 170.59C85.4434 170.275 83.6189 170.385 81.2689 170.274C81.875 174.089 84.2337 174.593 86.3906 175.191C94.0144 177.302 101.655 179.348 109.934 181.593Z" fill="#F4E3D9"/>
</svg>
