<svg width="103" height="29" viewBox="0 0 103 29" fill="none" xmlns="http://www.w3.org/2000/svg">
<path d="M41.8688 24.2383V20.2763H30.159V4.5752H25.7568V24.2383H41.8688Z" fill="black"/>
<path d="M48.0429 8.03825V4.5752H43.6407V8.03825H48.0429ZM48.0429 24.2383V9.53499H43.6407V24.2383H48.0429Z" fill="black"/>
<path d="M54.8667 24.5318C58.1243 24.5318 60.1787 23.1524 60.8537 20.8633H61.0885V24.2383H65.1972V15.61C65.1972 11.7654 62.8787 9.24151 57.9776 9.24151C53.1352 9.24151 50.083 11.7654 50.083 15.4046V15.4926H54.5146V15.3752C54.5146 13.7024 55.4243 13.1154 57.6548 13.1154C60.0026 13.1154 60.8537 13.6437 60.8537 15.5513V16.1089L54.5439 16.7546C51.4037 17.0774 49.7895 18.4274 49.7895 20.5991C49.7895 23.0644 51.6972 24.5318 54.8667 24.5318ZM54.2211 20.3057C54.2211 19.6013 54.6906 19.3078 55.7472 19.2198L60.8537 18.6328C60.7363 20.7165 59.1222 21.4209 56.1287 21.4209C54.8374 21.4209 54.2211 21.0981 54.2211 20.3057Z" fill="black"/>
<path d="M71.8307 24.2383V16.8133C71.8307 14.26 72.5938 13.2035 75.2644 13.2035C77.7884 13.2035 78.6394 14.1133 78.6394 16.5491V24.2383H83.0416V16.8133C83.0416 14.26 83.8047 13.2035 86.4753 13.2035C88.9992 13.2035 89.8503 14.1133 89.8503 16.5491V24.2383H94.2525V15.0817C94.2525 11.7361 92.4036 9.24151 88.6177 9.24151C84.8319 9.24151 83.3351 11.56 82.9829 14.0546H82.7188C82.396 11.3252 80.6644 9.24151 77.2601 9.24151C73.5623 9.24151 72.0949 11.5306 71.7427 13.9959H71.5079V9.53499H67.4285V24.2383H71.8307Z" fill="black"/>
<path d="M101.861 17.7817C101.861 15.4046 102.477 8.88934 102.477 6.62955V4.5752H96.8127V6.62955C96.8127 8.88934 97.429 15.3752 97.429 17.7817H101.861ZM102.154 24.2383V19.4546H97.1355V24.2383H102.154Z" fill="black"/>
<path d="M4.26326 27.7584L15.1062 23.3231M2 15.0263L13.8163 14.5823M5.07307 2L15.6484 6.14445" stroke="black" stroke-width="2.26415" stroke-linecap="round"/>
</svg>
