<svg width="420" height="237" viewBox="0 0 420 237" fill="none" xmlns="http://www.w3.org/2000/svg">
<path d="M111.425 127V97.2924H104.774V127H111.425ZM117.079 111.304C120.847 111.304 123.02 109.486 123.02 105.761V97.2924H114.462V105.052H118.231V105.806C118.231 106.914 117.788 107.18 116.901 107.18H114.729V111.304H117.079ZM132.772 127V115.782C132.772 111.925 133.924 110.328 137.959 110.328C141.773 110.328 143.058 111.703 143.058 115.383V127H149.709V115.782C149.709 111.925 150.862 110.328 154.897 110.328C158.71 110.328 159.996 111.703 159.996 115.383V127H166.647V113.166C166.647 108.111 163.854 104.342 158.134 104.342C152.414 104.342 150.153 107.845 149.621 111.614H149.222C148.734 107.491 146.118 104.342 140.974 104.342C135.388 104.342 133.171 107.801 132.639 111.525H132.284V104.786H126.121V127H132.772ZM183.697 127.443C188.619 127.443 191.723 125.359 192.742 121.901H193.097V127H199.305V113.964C199.305 108.156 195.802 104.342 188.397 104.342C181.081 104.342 176.47 108.156 176.47 113.654V113.787H183.165V113.609C183.165 111.082 184.54 110.195 187.909 110.195C191.457 110.195 192.742 110.993 192.742 113.875V114.718L183.209 115.693C178.465 116.181 176.026 118.221 176.026 121.502C176.026 125.226 178.908 127.443 183.697 127.443ZM182.722 121.058C182.722 119.994 183.431 119.551 185.027 119.418L192.742 118.531C192.565 121.679 190.126 122.743 185.604 122.743C183.653 122.743 182.722 122.256 182.722 121.058ZM216.168 127V115.871C216.168 112.146 217.543 110.328 222.021 110.328C226.189 110.328 227.785 111.658 227.785 115.383V127H234.436V113.388C234.436 108.244 231.51 104.342 225.524 104.342C219.848 104.342 217.232 107.801 216.523 111.57H216.168V97.2924H209.517V127H216.168ZM249.587 127.443C256.637 127.443 261.337 124.074 261.337 119.241V118.753H254.686V119.196C254.686 121.103 253.311 122.123 249.365 122.123C245.064 122.123 243.468 120.659 243.291 117.245H261.381C261.47 116.492 261.559 115.915 261.559 115.117C261.559 108.156 256.725 104.342 249.454 104.342C242.138 104.342 237.127 108.821 237.127 115.915C237.127 123.808 242.182 127.443 249.587 127.443ZM249.321 109.53C253.223 109.53 254.996 110.816 255.174 113.742H243.379C243.69 110.86 245.375 109.53 249.321 109.53ZM271.207 127.443C276.129 127.443 279.233 125.359 280.253 121.901H280.607V127H286.815V113.964C286.815 108.156 283.312 104.342 275.907 104.342C268.591 104.342 263.98 108.156 263.98 113.654V113.787H270.675V113.609C270.675 111.082 272.05 110.195 275.419 110.195C278.967 110.195 280.253 110.993 280.253 113.875V114.718L270.719 115.693C265.975 116.181 263.536 118.221 263.536 121.502C263.536 125.226 266.419 127.443 271.207 127.443ZM270.232 121.058C270.232 119.994 270.941 119.551 272.537 119.418L280.253 118.531C280.075 121.679 277.636 122.743 273.114 122.743C271.163 122.743 270.232 122.256 270.232 121.058ZM300.118 127.443C305.217 127.443 308.144 125.226 308.986 120.837H309.341V127H315.548V97.2924H308.897V110.683H308.498C307.744 106.958 305.04 104.342 299.763 104.342C293.157 104.342 289.388 108.821 289.388 115.915C289.388 122.921 293.201 127.443 300.118 127.443ZM296.127 115.915C296.127 111.836 298.123 110.417 302.379 110.417C306.636 110.417 308.897 111.836 308.897 115.693V116.048C308.897 119.906 306.592 121.369 302.379 121.369C298.123 121.369 296.127 119.95 296.127 115.915ZM325.718 102.525V97.2924H319.067V102.525H325.718ZM325.718 127V104.786H319.067V127H325.718ZM335.851 127V115.782C335.851 112.013 337.358 110.328 341.57 110.328C345.65 110.328 347.113 111.836 347.113 115.383V127H353.764V113.166C353.764 108.244 350.882 104.342 344.807 104.342C338.999 104.342 336.338 107.89 335.762 111.614H335.363V104.786H329.2V127H335.851ZM366.883 124.739C371.849 124.739 374.465 122.477 375.175 119.196H375.529V124.207C375.529 128.552 374.244 129.439 369.987 129.439C365.464 129.439 364.489 128.685 364.489 126.202H357.838C357.838 131.789 362.36 134.981 369.544 134.981C377.48 134.981 382.18 131.523 382.18 123.763V104.786H375.973V110.151H375.618C374.909 106.293 371.672 104.342 367.149 104.342C360.498 104.342 356.463 108.333 356.463 114.541C356.463 120.792 360.277 124.739 366.883 124.739ZM363.159 114.541C363.159 111.259 365.021 110.107 369.277 110.107C373.401 110.107 375.529 111.259 375.529 114.275V114.762C375.529 117.822 373.445 119.019 369.189 119.019C365.021 119.019 363.159 117.822 363.159 114.541Z" fill="#F4E3D9"/>
<line x1="45.8073" y1="135.137" x2="67.1446" y2="126.826" stroke="#F4E3D9" stroke-width="4.42566" stroke-linecap="round"/>
<line x1="41.8027" y1="110.179" x2="64.9109" y2="109.7" stroke="#F4E3D9" stroke-width="4.42566" stroke-linecap="round"/>
<line x1="48.238" y1="84.8216" x2="68.7699" y2="93.2695" stroke="#F4E3D9" stroke-width="4.42566" stroke-linecap="round"/>
<rect x="30" y="159" width="152" height="54.374" rx="27.187" fill="#F4E3D9"/>
<path d="M63.5882 177.662H61.8087V195.358H71.7196V193.727H63.5882V177.662ZM78.7888 195.654C81.6063 195.654 83.46 194.295 84.1026 191.774H82.4714C82.0265 193.356 80.766 194.196 78.8135 194.196C76.2431 194.196 74.7107 192.516 74.5872 189.599H84.1026V188.759C84.1026 185.373 81.9029 183.074 78.6652 183.074C75.2545 183.074 72.9312 185.645 72.9312 189.377C72.9312 193.133 75.2792 195.654 78.7888 195.654ZM78.6652 184.532C80.9143 184.532 82.3972 186.065 82.3972 188.363H74.6366C74.9332 186.015 76.4161 184.532 78.6652 184.532ZM89.452 195.358V184.829H91.8494V183.396H89.452V179.614H87.7713V183.396H85.3739V184.829H87.7713V195.358H89.452ZM96.8382 179.243C96.8382 178.032 96.0967 177.316 95.2564 177.316C94.3914 177.316 93.7982 177.933 93.7982 178.774C93.7982 179.614 94.3667 180.084 95.0093 180.084C95.3058 180.084 95.5283 180.034 95.6766 179.935C95.6766 180.627 95.034 181.245 94.1689 181.418V182.333C95.7013 182.11 96.8382 180.8 96.8382 179.243ZM98.0288 191.996C98.0288 194.221 99.7094 195.654 102.403 195.654C105.122 195.654 106.951 194.246 106.951 192.095C106.951 190.365 106.012 189.401 103.936 188.882L101.884 188.363C100.574 188.042 99.9319 187.399 99.9319 186.485C99.9319 185.2 100.871 184.483 102.552 184.483C104.158 184.483 105.122 185.299 105.172 186.683H106.827C106.753 184.458 105.122 183.074 102.601 183.074C100.031 183.074 98.2759 184.409 98.2759 186.51C98.2759 188.141 99.2893 189.228 101.365 189.747L103.417 190.266C104.826 190.612 105.32 191.181 105.32 192.169C105.32 193.455 104.232 194.246 102.379 194.246C100.698 194.246 99.66 193.381 99.66 191.996H98.0288ZM119.357 195.358V184.829H121.754V183.396H119.357V179.614H117.676V183.396H115.279V184.829H117.676V195.358H119.357ZM127.217 195.654C129.244 195.654 130.875 194.765 131.617 193.257L131.839 195.358H133.272V187.622C133.272 184.458 131.246 183.074 128.478 183.074C125.537 183.074 123.559 184.631 123.559 187.053H125.116C125.116 185.447 126.352 184.508 128.428 184.508C130.183 184.508 131.592 185.249 131.592 187.597V187.993L127.637 188.314C124.844 188.536 123.164 189.92 123.164 192.12C123.164 194.221 124.671 195.654 127.217 195.654ZM127.613 194.27C125.981 194.27 124.894 193.529 124.894 192.071C124.894 190.736 125.808 189.747 128.057 189.55L131.592 189.278V189.92C131.592 192.516 130.134 194.27 127.613 194.27ZM138.474 195.358V177.34H136.769V195.358H138.474ZM143.881 195.358V191.774L146.204 189.377L150.01 195.358H151.987L147.365 188.166L151.963 183.396H149.812L143.881 189.574V177.34H142.175V195.358H143.881Z" fill="black"/>
<circle cx="358" cy="181" r="32" fill="#F4E3D9"/>
<g clip-path="url(#clip0_820_2281)">
<path d="M359 176.828V189H357V176.828L351.636 182.192L350.222 180.778L358 173L365.778 180.778L364.364 182.192L359 176.828Z" fill="black"/>
</g>
<circle cx="32" cy="32" r="32" transform="matrix(1 0 0 -1 250 213)" fill="#F4E3D9"/>
<g clip-path="url(#clip1_820_2281)">
<path d="M283 185.172V173H281V185.172L275.636 179.808L274.222 181.222L282 189L289.778 181.222L288.364 179.808L283 185.172Z" fill="black"/>
</g>
<defs>
<clipPath id="clip0_820_2281">
<rect width="24" height="24" fill="white" transform="translate(346 169)"/>
</clipPath>
<clipPath id="clip1_820_2281">
<rect width="24" height="24" fill="white" transform="matrix(1 0 0 -1 270 193)"/>
</clipPath>
</defs>
</svg>
